<svg width="50" height="24" viewBox="0 0 24 24" fill="none" xmlns="http://www.w3.org/2000/svg">
  <!-- Blue Circle Background -->
  <circle cx="12" cy="12" r="12" fill="lightblue
  " />
  <!-- Play Button -->
  <path d="M13.9405 6.337C15.5735 7.26468 16.8567 7.99369 17.7709 8.66148C18.6913 9.33386 19.3721 10.0366 19.6159 10.9632C19.7947 11.6426 19.7947 12.3574 19.6159 13.0368C19.3721 13.9634 18.6913 14.6661 17.7709 15.3385C16.8567 16.0063 15.5735 16.7353 13.9406 17.663L13.9406 17.663C12.3632 18.5591 11.033 19.3148 10.0232 19.7444C9.0053 20.1773 8.07729 20.3968 7.17536 20.1412C6.51252 19.9533 5.90941 19.5968 5.50902 19.0906C5.10379 18.5782 5.02443 17.8951 5.00535 17.2171C4.9856 16.5063 5 15.7232 5 15L5 9C5 8.27677 4.9856 7.49369 5.00535 6.78292C5.02443 6.1049 5.10379 5.42183 5.50902 4.90936C5.90941 4.40321 6.51252 4.04667 7.17536 3.85883C8.07729 3.60315 9.0053 3.82274 10.0232 4.25564C11.033 4.68524 12.3632 5.4409 13.9405 6.337Z" fill="#040000" />
</svg>